<svg viewBox="0 0 212 200" xmlns="http://www.w3.org/2000/svg" width="630.267" height="255.04" preserveAspectRatio="xMidYMid meet"><g fill="#1a64b7"><path d="M290.365 8.976l-43.417 154.125c-1.64 5.81-5.217 8.79-11.36 8.79h-19.196c-7.165 0-7.721-4.118-6.403-8.79L253.403 8.976c1.669-5.92 3.09-8.979 10.257-8.979h19.83c7.28 0 8.131 4.594 6.875 8.979M37.48 163.101l35.354-125.5c.785-2.35 1.841-2.836 4.19-2.836 6.406 0 6.201 5.807 7.129 10.863 1.504 9.216 4.674 31.787 9.34 57.23 10.21 55.668 33.775 69.033 58.491 69.033h12.975c8.345 0 12.114-3.126 13.713-8.79L222.089 8.976c1.422-4.876-.633-8.979-6.357-8.979h-19.905c-8.5 0-9.982 6.459-10.7 8.979l-35.562 126.237c-1.028 3.774-5.006.847-7.626-1.88-8.78-9.14-14.236-37.733-17.556-57.029-3.556-20.667-6.409-49.092-11.192-59.912C108.405 5.572 101.806-.003 83.27-.003H55.88c-4.982 0-9.985 2.034-11.912 8.867L.515 163.101c-1.833 6.035 1.298 8.79 8.275 8.79h17.867c7.161 0 9.471-4.003 10.823-8.79M628.017 76.87c-4.649-1.887-22.48 32.486-89.34 22.551-71.426-10.614-99.51 15.702-95.178 22.292 1.994 3.036 10.328-1.188 25.108-1.548 5.464-.134 11.802.134 19.002 1.658 1.496.315 2.96.625 4.41.932v40.346c0 5.03 2.737 8.79 8.689 8.79h19.619c5.75 0 8.798-3.699 8.798-8.872V130.41c37.394 7.246 52.336 7.493 71.211-1.262 32.612-15.125 32.323-50.388 27.681-52.277zM486.993 34.797h1.518c3.618 0 3.508 1.092 3.508 3.685v48.911s10.186-1.679 18.868-1.96c10.828-.35 18.238.093 18.238.093V8.967c0-7.178-3.136-8.97-10.478-8.97h-25.135c-16.017 0-30.804 6.599-41.687 17.419-10.881 10.82-32.368 40.628-44.826 59.185-12.452 18.56-32.148 46.732-45.683 56.731-4.015 2.968-12.268 7.083-12.823.193l-6.66-124.602c-.222-4.323-1.84-8.926-9.589-8.926H313.66c-6.388 0-8.724 3.79-8.535 8.971l7.65 154.101c.345 5.928 2.128 8.822 9.166 8.822h20.126c23.412 0 48.713-11.604 86.096-65.594 20.925-30.221 36.556-51.97 43.26-61.185 4.31-5.848 8.461-10.316 15.57-10.316M20.303 245.93L6.099 224.304v21.628H1.436v-30.739H5.71l14.204 21.587v-21.587h4.663v30.739h-4.274M43.4 228.965c-.82-.82-1.942-1.253-3.237-1.253-1.296 0-2.374.432-3.195 1.253-1.338 1.338-1.51 3.626-1.51 6 0 2.375.172 4.663 1.51 6.002.82.82 1.9 1.294 3.195 1.294s2.417-.474 3.238-1.294c1.338-1.339 1.51-3.627 1.51-6.002 0-2.374-.172-4.662-1.51-6zm3.325 14.635c-1.425 1.468-3.584 2.59-6.562 2.59-2.98 0-5.095-1.122-6.52-2.59-2.072-2.158-2.59-4.921-2.59-8.635 0-3.669.518-6.433 2.59-8.592 1.425-1.466 3.54-2.59 6.52-2.59 2.978 0 5.137 1.124 6.562 2.59 2.072 2.16 2.59 4.923 2.59 8.592 0 3.714-.518 6.477-2.59 8.635M67.32 229.18c-.995-.992-1.771-1.468-3.283-1.468-2.373 0-4.36 1.9-4.36 4.923v13.296h-4.404v-21.888h4.318v2.373c1.123-1.553 3.367-2.632 5.828-2.632 2.115 0 3.713.561 5.224 2.072l-3.324 3.324M80.876 246.19c-3.583 0-6.605-.605-9.196-3.152l2.893-2.893c1.77 1.815 4.145 2.288 6.303 2.288 2.677 0 4.792-.95 4.792-3.021 0-1.468-.82-2.417-2.936-2.59l-3.496-.302c-4.102-.345-6.476-2.203-6.476-6.045 0-4.274 3.67-6.691 8.245-6.691 3.281 0 6.088.69 8.117 2.461l-2.763 2.805c-1.382-1.165-3.325-1.596-5.396-1.596-2.634 0-3.973 1.165-3.973 2.805 0 1.296.69 2.289 3.023 2.504l3.453.302c4.102.347 6.52 2.29 6.52 6.175 0 4.574-3.887 6.95-9.11 6.95M109.111 245.93l-6.13-10.102-3.238 3.67v6.433h-4.404v-30.739h4.404v18.952l8.505-10.101h5.354l-7.6 8.592 8.55 13.296h-5.44M129.36 245.93v-21.887h4.404v21.888zm-.13-26.205v-4.662h4.663v4.662h-4.662M154.099 245.93v-13.34c0-3.41-1.943-4.878-4.404-4.878-2.462 0-4.534 1.512-4.534 4.879v13.34h-4.404v-21.888h4.319v2.202c1.51-1.641 3.625-2.461 5.828-2.461 2.244 0 4.1.735 5.396 1.985 1.684 1.642 2.201 3.712 2.201 6.174v13.988H154.1M172.361 246.19c-3.584 0-6.605-.605-9.196-3.152l2.892-2.893c1.771 1.815 4.146 2.288 6.304 2.288 2.676 0 4.792-.95 4.792-3.021 0-1.468-.82-2.417-2.936-2.59l-3.496-.302c-4.102-.345-6.476-2.203-6.476-6.045 0-4.274 3.67-6.691 8.246-6.691 3.281 0 6.088.69 8.116 2.461l-2.763 2.805c-1.381-1.165-3.324-1.596-5.397-1.596-2.634 0-3.972 1.165-3.972 2.805 0 1.296.692 2.289 3.022 2.504l3.454.302c4.102.347 6.52 2.29 6.52 6.175 0 4.574-3.887 6.95-9.11 6.95M192.913 245.93c-4.102 0-6.001-2.935-6.001-6.086V227.8h-2.504v-3.368h2.504v-6.648h4.403v6.648h4.232v3.368h-4.232v11.829c0 1.597.777 2.547 2.417 2.547h1.815v3.756h-2.634M201.159 245.93v-21.887h4.402v21.888zm-.131-26.205v-4.662h4.664v4.662h-4.664M219.076 245.93c-4.103 0-6.001-2.935-6.001-6.086V227.8h-2.504v-3.368h2.504v-6.648h4.402v6.648h4.232v3.368h-4.232v11.829c0 1.597.778 2.547 2.418 2.547h1.814v3.756h-2.633M240.532 245.93v-2.2c-1.51 1.64-3.625 2.46-5.828 2.46-2.244 0-4.101-.734-5.396-1.986-1.684-1.64-2.201-3.713-2.201-6.174v-13.987h4.402v13.34c0 3.41 1.943 4.878 4.404 4.878 2.46 0 4.532-1.512 4.532-4.878v-13.34h4.404v21.888h-4.317M258.363 245.93c-4.1 0-6-2.935-6-6.086V227.8h-2.504v-3.368h2.504v-6.648h4.404v6.648h4.23v3.368h-4.23v11.829c0 1.597.777 2.547 2.417 2.547h1.813v3.756h-2.634M273.13 245.93c-4.102 0-6.002-2.935-6.002-6.086V227.8h-2.504v-3.368h2.504v-6.648h4.404v6.648h4.23v3.368h-4.23v11.829c0 1.597.777 2.547 2.417 2.547h1.814v3.756h-2.634M296.832 227.799v18.132h-4.404v-18.132h-2.504v-3.368h2.504v-3.367c0-3.15 1.9-6.088 6.001-6.088h2.763v3.757h-1.943c-1.64 0-2.417.95-2.417 2.547v3.15h4.36v3.369h-4.36M316.52 228.965c-.821-.82-1.943-1.253-3.239-1.253-1.296 0-2.374.432-3.196 1.253-1.337 1.338-1.509 3.626-1.509 6 0 2.375.172 4.663 1.51 6.002.82.82 1.9 1.294 3.195 1.294 1.296 0 2.418-.474 3.239-1.294 1.337-1.339 1.51-3.627 1.51-6.002 0-2.374-.173-4.662-1.51-6zm3.324 14.635c-1.427 1.468-3.584 2.59-6.563 2.59-2.978 0-5.094-1.122-6.52-2.59-2.07-2.158-2.589-4.921-2.589-8.635 0-3.669.519-6.433 2.59-8.592 1.425-1.466 3.54-2.59 6.52-2.59 2.978 0 5.135 1.124 6.562 2.59 2.072 2.16 2.59 4.923 2.59 8.592 0 3.714-.518 6.477-2.59 8.635M340.436 229.18c-.992-.992-1.77-1.468-3.281-1.468-2.374 0-4.359 1.9-4.359 4.923v13.296h-4.404v-21.888h4.316v2.373c1.123-1.553 3.368-2.632 5.828-2.632 2.116 0 3.715.561 5.224 2.072l-3.324 3.324M366.168 245.93h-3.584l-8.03-21.887h4.663l5.182 15.413 5.136-15.413h4.662l-8.029 21.888M389.31 236.26h-5.138c-2.59 0-3.928 1.165-3.928 3.152s1.252 3.11 4.015 3.11c1.684 0 2.936-.131 4.102-1.254.647-.647.948-1.684.948-3.238zm.086 9.67v-1.985c-1.596 1.598-3.108 2.246-5.828 2.246s-4.533-.648-5.872-1.987c-1.121-1.166-1.725-2.85-1.725-4.705 0-3.671 2.546-6.304 7.554-6.304h5.784v-1.555c0-2.763-1.381-4.102-4.79-4.102-2.419 0-3.584.562-4.794 2.117l-2.892-2.72c2.072-2.416 4.231-3.151 7.858-3.151 6.001 0 9.022 2.547 9.022 7.512v14.635h-4.317M413.833 245.93v-13.34c0-3.41-1.942-4.878-4.404-4.878-2.46 0-4.532 1.512-4.532 4.879v13.34h-4.404v-21.888h4.316v2.202c1.512-1.641 3.627-2.461 5.83-2.461 2.245 0 4.101.735 5.396 1.985 1.684 1.642 2.202 3.712 2.202 6.174v13.988h-4.404M438.356 245.93v-13.34c0-3.41-1.943-4.878-4.404-4.878s-4.533 1.512-4.533 4.879v13.34h-4.403v-21.888h4.316v2.202c1.512-1.641 3.627-2.461 5.828-2.461 2.245 0 4.101.735 5.397 1.985 1.684 1.642 2.202 3.712 2.202 6.174v13.988h-4.403M454.633 227.799v18.132h-4.404v-18.132h-2.504v-3.368h2.504v-3.367c0-3.15 1.9-6.088 6.002-6.088h2.762v3.757h-1.942c-1.64 0-2.418.95-2.418 2.547v3.15h4.36v3.369h-4.36M474.32 228.965c-.82-.82-1.943-1.253-3.237-1.253-1.296 0-2.376.432-3.196 1.253-1.339 1.338-1.511 3.626-1.511 6 0 2.375.172 4.663 1.51 6.002.82.82 1.9 1.294 3.197 1.294 1.294 0 2.417-.474 3.237-1.294 1.337-1.339 1.51-3.627 1.51-6.002 0-2.374-.173-4.662-1.51-6zm3.324 14.635c-1.425 1.468-3.583 2.59-6.561 2.59-2.98 0-5.096-1.122-6.52-2.59-2.072-2.158-2.591-4.921-2.591-8.635 0-3.669.519-6.433 2.59-8.592 1.425-1.466 3.54-2.59 6.52-2.59 2.98 0 5.137 1.124 6.562 2.59 2.072 2.16 2.59 4.923 2.59 8.592 0 3.714-.518 6.477-2.59 8.635M498.239 229.18c-.992-.992-1.77-1.468-3.282-1.468-2.373 0-4.36 1.9-4.36 4.923v13.296h-4.402v-21.888h4.316v2.373c1.122-1.553 3.366-2.632 5.828-2.632 2.116 0 3.713.561 5.224 2.072l-3.324 3.324M511.795 246.19c-3.584 0-6.606-.605-9.196-3.152l2.892-2.893c1.77 1.815 4.145 2.288 6.304 2.288 2.677 0 4.792-.95 4.792-3.021 0-1.468-.82-2.417-2.936-2.59l-3.498-.302c-4.1-.345-6.474-2.203-6.474-6.045 0-4.274 3.669-6.691 8.245-6.691 3.281 0 6.088.69 8.116 2.461l-2.763 2.805c-1.381-1.165-3.324-1.596-5.396-1.596-2.633 0-3.972 1.165-3.972 2.805 0 1.296.691 2.289 3.022 2.504l3.454.302c4.1.347 6.519 2.29 6.519 6.175 0 4.574-3.885 6.95-9.11 6.95M540.03 245.93l-6.13-10.102-3.237 3.67v6.433h-4.404v-30.739h4.404v18.952l8.504-10.101h5.354l-7.6 8.592 8.55 13.296h-5.442M563.257 245.93v-13.34c0-3.41-1.942-4.878-4.402-4.878-2.462 0-4.534 1.512-4.534 4.879v13.34h-4.404v-21.888h4.318v2.202c1.512-1.641 3.626-2.461 5.828-2.461 2.245 0 4.101.735 5.397 1.985 1.683 1.642 2.201 3.712 2.201 6.174v13.988h-4.404M574.441 245.93v-21.887h4.404v21.888zm-.13-26.205v-4.662h4.662v4.662h-4.662M599.179 245.93v-13.34c0-3.41-1.943-4.878-4.404-4.878-2.462 0-4.532 1.512-4.532 4.879v13.34h-4.404v-21.888h4.316v2.202c1.512-1.641 3.626-2.461 5.828-2.461 2.245 0 4.101.735 5.397 1.985 1.684 1.642 2.203 3.712 2.203 6.174v13.988h-4.404M618.219 227.712c-3.971 0-4.49 3.41-4.49 6.865 0 3.453.519 6.865 4.49 6.865 3.972 0 4.446-3.412 4.446-6.865 0-3.454-.474-6.865-4.446-6.865zm-.519 27.328c-3.324 0-5.439-.777-7.728-2.892l2.807-2.806c1.381 1.294 2.59 1.942 4.749 1.942 3.713 0 5.137-2.634 5.137-5.57v-2.805c-1.597 1.9-3.41 2.504-5.654 2.504-2.203 0-4.016-.734-5.224-1.944-2.116-2.114-2.462-5.18-2.462-8.892 0-3.714.346-6.778 2.462-8.893 1.208-1.21 3.065-1.9 5.266-1.9 2.331 0 4.102.604 5.743 2.59v-2.331h4.273v21.76c0 5.352-3.541 9.237-9.369 9.237"/></g></svg>
